<?xml version="1.0" encoding="utf-8"?>
<!-- Generator: Adobe Illustrator 21.1.0, SVG Export Plug-In . SVG Version: 6.00 Build 0)  -->
<svg version="1.1" id="Layer_1" xmlns="http://www.w3.org/2000/svg" xmlns:xlink="http://www.w3.org/1999/xlink" x="0px" y="0px"
	 viewBox="0 0 250 250" style="enable-background:new 0 0 250 250;" xml:space="preserve">
<style type="text/css">
	.st0{fill:#FBB03B;}
	.st1{fill:#FFFFFF;}
</style>
<title>favicon</title>
<path class="st0" d="M215.9,0H34.1C15.3,0,0,15.3,0,34.1c0,0,0,0,0,0v181.8C0,234.7,15.3,250,34.1,250h181.8
	c18.8,0,34.1-15.3,34.1-34.1V34.1C250,15.3,234.7,0,215.9,0z"/>
<g>
	<g>
		<path class="st1" d="M215.6,215.8c0.1,0-86.3,8-121.3-5.2c-3.7-1.3-7.3-2.9-10.7-4.6c-21.3-10.5-37.6-27.4-45.1-52.8
			c-2-6.2-3.4-12.8-4-19.5c-5.2-55.4,41-102.9,96.5-99.3c47.4,3.1,84.9,42.5,84.9,90.7c0,29.7-14.3,56.1-36.4,72.7L215.6,215.8"/>
		<path d="M216,215.1c0.4,2.6-0.8,1.1-0.4,1.5l-0.2,0l-0.3,0l-0.6,0.1l-1.2,0.1l-2.4,0.2l-4.7,0.5c-3.1,0.3-6.3,0.6-9.4,0.8
			c-6.3,0.5-12.6,0.9-18.9,1.2c-12.6,0.6-25.2,0.9-37.9,0.6c-6.3-0.2-12.7-0.5-19-1.1c-6.3-0.6-12.7-1.4-19-2.8
			c-3.1-0.7-6.4-1.6-9.4-2.7c-3.1-1.1-6.1-2.3-9.1-3.7c-5.8-2.7-11.6-5.9-16.9-9.7c-10.7-7.5-19.7-17.8-26-29.5l-1.2-2.2l-1-2.2
			l-1-2.3l-0.9-2.3l-0.9-2.3l-0.8-2.3l-0.8-2.3l-0.8-2.3c-2-6.3-3.4-12.8-4-19.5c-1.4-13.2,0.2-26.8,4.5-39.4
			C38.1,80.9,45,69.1,54,59.2c9-9.9,20-18.1,32.3-23.7c12.3-5.6,25.8-8.7,39.4-8.8c13.6-0.2,27.3,2.5,39.9,8
			c12.6,5.5,24,13.7,33.1,23.9c9.2,10.2,16.1,22.4,20.1,35.5c2,6.5,3.3,13.3,3.9,20c0.3,3.4,0.4,6.8,0.4,10.2
			c-0.1,3.4-0.3,6.8-0.8,10.1c-1.6,13.4-6.2,26.5-13.3,37.8c-7,11.4-16.4,21.1-27.3,28.4l-0.6-6.2l8.7,5.1c2.9,1.7,5.8,3.4,8.7,5.1
			l8.7,5.2C210.2,211.6,213.1,213.3,216,215.1c0.4,0.2,0.5,0.7,0.3,1.1c-0.2,0.3-0.6,0.5-1,0.3c-3.1-1.2-6.3-2.5-9.4-3.8l-9.4-3.9
			c-3.1-1.3-6.2-2.6-9.3-3.9l-9.3-3.9c-1.8-0.8-2.6-2.8-1.9-4.6c0.2-0.5,0.5-1,0.9-1.3l0.4-0.3c9.2-7.8,16.7-17.4,22.1-28
			c2.7-5.3,4.8-10.8,6.3-16.4c1.5-5.7,2.5-11.4,2.8-17.2c1.6-23.3-6.7-46.6-22.2-63.4c-15.3-17-37.5-27.6-60.7-28.3
			c-11.5-0.3-23.2,1.8-34,6.3C81,52.2,71.1,59,63,67.5C54.9,76,48.5,86.2,44.5,97.3c-4.1,11.1-5.8,23-5,34.9
			c0.3,5.9,1.4,11.8,3,17.6l0.6,2.2l0.7,2.2l0.7,2.2l0.8,2.1l0.8,2.1l0.9,2.1l0.9,2.1l1,2c5.2,10.7,13,20.1,22.6,27.4
			c4.8,3.7,10,6.8,15.4,9.6c2.7,1.4,5.5,2.6,8.3,3.7c2.8,1.1,5.7,2,8.6,2.8c5.9,1.6,12,2.6,18.2,3.4c6.2,0.8,12.4,1.4,18.6,1.8
			c12.5,0.8,25,1,37.6,0.9c6.3,0,12.6-0.2,18.8-0.4c3.1-0.1,6.3-0.2,9.4-0.4l4.7-0.2l2.3-0.1l1.2-0.1l0.6,0l0.3,0l0.1,0
			c0.5,0.4-0.6-1.1-0.1,1.5c-0.4-0.2-0.6-0.7-0.4-1.1C215.1,215,215.6,214.9,216,215.1z"/>
	</g>
	<circle cx="125" cy="126.1" r="14.3"/>
	<circle cx="85" cy="126.1" r="14.3"/>
	<circle cx="165" cy="126.1" r="14.3"/>
</g>
</svg>
